<?xml version="1.0" encoding="UTF-8" standalone="no"?>
<!-- Created with Inkscape (http://www.inkscape.org/) -->

<svg
   width="130.08337mm"
   height="31.207697mm"
   viewBox="0 0 130.08337 31.207697"
   version="1.1"
   id="svg1"
   inkscape:version="1.4.3 (0d15f75042, 2025-12-25)"
   sodipodi:docname="spektra-logo.svg"
   xmlns:inkscape="http://www.inkscape.org/namespaces/inkscape"
   xmlns:sodipodi="http://sodipodi.sourceforge.net/DTD/sodipodi-0.dtd"
   xmlns="http://www.w3.org/2000/svg"
   xmlns:svg="http://www.w3.org/2000/svg">
  <sodipodi:namedview
     id="namedview1"
     pagecolor="#ffffff"
     bordercolor="#000000"
     borderopacity="0.25"
     inkscape:showpageshadow="2"
     inkscape:pageopacity="0.0"
     inkscape:pagecheckerboard="0"
     inkscape:deskcolor="#d1d1d1"
     inkscape:document-units="mm"
     inkscape:zoom="1.0039913"
     inkscape:cx="7.4701842"
     inkscape:cy="309.26563"
     inkscape:window-width="3440"
     inkscape:window-height="1335"
     inkscape:window-x="0"
     inkscape:window-y="0"
     inkscape:window-maximized="1"
     inkscape:current-layer="layer1" />
  <defs
     id="defs1" />
  <g
     inkscape:label="Layer 1"
     inkscape:groupmode="layer"
     id="layer1"
     transform="translate(-102.92291,-66.675)">
    <path
       d="m 131.21888,87.831433 0.0105,-10.030258 h -6.3672 -6.36721 l 0.0108,2.223146 0.0108,2.223151 4.08099,0.01064 4.08099,0.01064 v 5.552442 5.552454 h -9.60232 -9.60233 v -2.547064 -2.547065 l -2.26489,0.0108 -2.2649,0.0108 -0.0106,4.790786 -0.0106,4.790791 14.14273,-0.01051 14.14274,-0.01051 z m -15.56212,-4.707226 v -2.233585 h -4.09141 -4.09143 v -4.863788 -4.863789 l 0.80367,-1.4e-5 c 0.44202,-7e-6 4.71141,-2.21e-4 9.48752,-4.82e-4 4.77611,-2.54e-4 8.7355,-2.48e-4 8.79865,1.4e-5 l 0.11481,4.82e-4 v 1.836967 1.836967 h 2.27554 2.27554 l -0.0106,-4.08099 -0.0106,-4.080989 H 117.07633 102.9442 l -0.0107,9.289206 c -0.006,5.109067 -0.002,9.312696 0.009,9.341396 0.0157,0.04144 1.32768,0.05219 6.36703,0.05219 h 6.34721 z"
       style="display:inline;fill:#00ffcc;stroke-width:0.401459"
       id="path1-6" />
    <path
       d="m 140.85953,89.083223 q -2.34799,0 -3.71366,-1.054201 -1.36567,-1.078159 -1.36567,-2.899051 h 2.94697 q 0,0.766691 0.55106,1.173996 0.57502,0.407305 1.5813,0.407305 h 1.0542 q 1.07816,0 1.65318,-0.407305 0.59898,-0.407305 0.59898,-1.173996 0,-0.718773 -0.40731,-1.0542 -0.4073,-0.359387 -1.24587,-0.479182 l -3.2824,-0.431264 q -1.5813,-0.215632 -2.44383,-1.221914 -0.83857,-1.006283 -0.83857,-2.611542 0,-1.86881 1.24588,-2.851133 1.24587,-1.006283 3.59386,-1.006283 h 1.10212 q 2.20424,0 3.54595,1.006283 1.34171,1.006282 1.38963,2.683419 h -2.97093 q -0.024,-0.622937 -0.55106,-0.982323 -0.5271,-0.383346 -1.41359,-0.383346 h -1.10212 q -0.95836,0 -1.4615,0.407305 -0.50314,0.383346 -0.50314,1.0542 0,0.598978 0.35938,0.886487 0.38335,0.287509 1.10212,0.359387 l 3.09073,0.431263 q 1.82089,0.215632 2.73133,1.293792 0.93441,1.0542 0.93441,2.851133 0,1.916728 -1.31775,2.970928 -1.29379,1.030242 -3.8095,1.030242 z m 9.58365,4.097006 V 75.690085 h 2.92301 v 2.419869 q 0.35939,-1.245873 1.29379,-1.940687 0.93441,-0.718773 2.32403,-0.718773 1.26984,0 2.2282,0.622937 0.98232,0.622937 1.50942,1.772973 0.55106,1.126078 0.55106,2.635501 v 3.569906 q 0,2.276115 -1.17399,3.665743 -1.174,1.389628 -3.11469,1.389628 -1.38962,0 -2.34799,-0.718773 -0.9344,-0.718773 -1.29379,-2.012565 l 0.0958,3.114683 v 3.689702 z m 5.41476,-6.66063 q 1.15003,0 1.77297,-0.622937 0.6469,-0.622936 0.6469,-1.916728 v -3.402192 q 0,-1.293792 -0.6469,-1.916728 -0.62294,-0.622937 -1.77297,-0.622937 -1.15004,0 -1.79694,0.694814 -0.62293,0.694814 -0.62293,1.964646 v 3.162602 q 0,1.269832 0.62293,1.964646 0.6469,0.694814 1.79694,0.694814 z m 14.32755,2.587583 q -1.67714,0 -2.92301,-0.646896 -1.24588,-0.646896 -1.94069,-1.820892 -0.67085,-1.197955 -0.67085,-2.803214 v -3.114684 q 0,-1.605259 0.67085,-2.779255 0.69481,-1.197955 1.94069,-1.844851 1.24587,-0.646896 2.92301,-0.646896 1.65318,0 2.87509,0.646896 1.24587,0.646896 1.91673,1.820892 0.69481,1.150037 0.69481,2.707378 v 2.39591 h -8.14609 v 0.910446 q 0,1.34171 0.69481,2.036524 0.69482,0.670854 1.96465,0.670854 0.9344,0 1.5813,-0.311468 0.67085,-0.335427 0.79065,-0.958364 h 2.97093 q -0.31147,1.701096 -1.77298,2.731337 -1.4615,1.006283 -3.5699,1.006283 z m -2.65946,-8.481522 v 0.455223 l 5.271,-0.02396 V 80.6017 q 0,-1.365669 -0.67086,-2.108401 -0.67085,-0.742732 -1.94068,-0.742732 -1.31775,0 -1.98861,0.766691 -0.67085,0.742732 -0.67085,2.108402 z m 11.78788,8.241931 V 71.377447 h 2.99489 v 9.487804 h 2.1084 l 3.13865,-5.175166 h 3.33031 l -3.90533,6.373121 4.04908,6.804385 h -3.40219 l -3.21052,-5.462675 h -2.1084 v 5.462675 z m 20.91631,0 q -1.84485,0 -2.94697,-1.054201 -1.07816,-1.078159 -1.07816,-2.899051 v -6.516875 h -3.64178 v -2.707379 h 3.64178 v -3.71366 h 3.01884 v 3.71366 h 5.24705 v 2.707379 h -5.24705 v 6.444998 q 0,0.575018 0.31147,0.958364 0.33543,0.359386 0.91045,0.359386 h 3.90533 v 2.707379 z m 8.19402,0 V 75.690085 h 2.92301 v 2.563624 q 0.23959,-1.293791 1.174,-2.036524 0.95836,-0.766691 2.46779,-0.766691 2.01256,0 3.13864,1.293792 1.12608,1.293791 1.12608,3.617824 v 1.245873 h -2.99489 v -1.102118 q 0,-1.197955 -0.62294,-1.820892 -0.62293,-0.646896 -1.77297,-0.646896 -1.19796,0 -1.82089,0.718773 -0.62294,0.718773 -0.62294,2.036524 v 8.074217 z m 17.77766,0.239591 q -2.01256,0 -3.18656,-1.126078 -1.15004,-1.150037 -1.15004,-2.994888 0,-1.916728 1.31775,-3.042805 1.31775,-1.150037 3.61783,-1.150037 h 3.21052 v -0.934405 q 0,-1.988606 -2.32404,-1.988606 -1.0542,0 -1.67713,0.407305 -0.62294,0.407305 -0.69482,1.150037 h -2.87509 q 0.0958,-1.772973 1.48547,-2.875092 1.41358,-1.102119 3.78553,-1.102119 2.51571,0 3.90534,1.173996 1.38963,1.173996 1.38963,3.306356 v 8.936745 h -2.92302 v -2.467788 q -0.16771,1.269833 -1.19795,1.988606 -1.03024,0.718773 -2.68342,0.718773 z m 0.95836,-2.443829 q 1.31775,0 2.08445,-0.646895 0.76669,-0.646896 0.76669,-1.725056 v -1.557341 h -3.06677 q -0.98232,0 -1.55734,0.551059 -0.57502,0.55106 -0.57502,1.413587 0,0.886487 0.59898,1.437546 0.62294,0.5271 1.74901,0.5271 z"
       id="text2"
       style="font-weight:bold;font-size:23.9591px;font-family:'JetBrains Mono';-inkscape-font-specification:'JetBrains Mono Bold';fill:#00ffcc;stroke-width:2.82981;stroke-linecap:round;stroke-linejoin:round"
       aria-label="spektra" />
  </g>
</svg>
