<?xml version="1.0" encoding="UTF-8" standalone="no"?>
<!-- Created with Inkscape (http://www.inkscape.org/) -->

<svg
   width="28.30674mm"
   height="31.207621mm"
   viewBox="0 0 28.30674 31.207621"
   version="1.1"
   id="svg1"
   inkscape:version="1.4.3 (0d15f75042, 2025-12-25)"
   sodipodi:docname="spektra-favicon.svg"
   xmlns:inkscape="http://www.inkscape.org/namespaces/inkscape"
   xmlns:sodipodi="http://sodipodi.sourceforge.net/DTD/sodipodi-0.dtd"
   xmlns="http://www.w3.org/2000/svg"
   xmlns:svg="http://www.w3.org/2000/svg">
  <sodipodi:namedview
     id="namedview1"
     pagecolor="#ffffff"
     bordercolor="#000000"
     borderopacity="0.25"
     inkscape:showpageshadow="2"
     inkscape:pageopacity="0.0"
     inkscape:pagecheckerboard="0"
     inkscape:deskcolor="#d1d1d1"
     inkscape:document-units="mm"
     inkscape:zoom="1.0039913"
     inkscape:cx="55.279363"
     inkscape:cy="88.148174"
     inkscape:window-width="1801"
     inkscape:window-height="903"
     inkscape:window-x="26"
     inkscape:window-y="23"
     inkscape:window-maximized="0"
     inkscape:current-layer="layer1" />
  <defs
     id="defs1" />
  <g
     inkscape:label="Layer 1"
     inkscape:groupmode="layer"
     id="layer1"
     transform="translate(-90.48749,-125.14792)">
    <path
       d="m 118.78346,146.30435 0.0105,-10.03026 h -6.3672 -6.36721 l 0.0108,2.22315 0.0108,2.22315 4.08099,0.0106 4.08099,0.0106 v 5.55244 5.55246 h -9.60232 -9.602326 v -2.54707 -2.54706 l -2.264895,0.0108 -2.264899,0.0108 -0.0106,4.79078 -0.0106,4.7908 14.14273,-0.0105 14.14274,-0.0105 z m -15.56212,-4.70722 v -2.23359 h -4.091415 -4.091427 v -4.86379 -4.86379 l 0.803673,-1e-5 c 0.442022,-1e-5 4.711399,-2.2e-4 9.487519,-4.8e-4 4.77611,-2.6e-4 8.7355,-2.5e-4 8.79865,1e-5 l 0.11481,4.8e-4 v 1.83697 1.83697 h 2.27554 2.27554 l -0.0106,-4.08099 -0.0106,-4.08099 H 104.64082 90.508704 l -0.01072,9.28921 c -0.0059,5.10906 -0.0016,9.31269 0.0091,9.34139 0.01574,0.0414 1.327677,0.0522 6.367026,0.0522 h 6.34721 z"
       style="fill:#00ffcc;stroke-width:0.401459"
       id="path1-6" />
  </g>
</svg>
